<?xml version="1.0" standalone="no"?>
<!DOCTYPE svg PUBLIC "-//W3C//DTD SVG 20010904//EN"
 "http://www.w3.org/TR/2001/REC-SVG-20010904/DTD/svg10.dtd">
<svg version="1.0" xmlns="http://www.w3.org/2000/svg"
 width="700.000000pt" height="700.000000pt" viewBox="0 0 700.000000 700.000000"
 preserveAspectRatio="xMidYMid meet">
<metadata>
Created by potrace 1.11, written by Peter Selinger 2001-2013
</metadata>
<g transform="translate(0.000000,700.000000) scale(0.100000,-0.100000)"
fill="#000000" stroke="none">
<path d="M3360 6110 c-280 -101 -709 -254 -800 -285 -52 -18 -147 -52 -210
-75 -63 -23 -173 -62 -245 -86 -71 -25 -139 -49 -150 -54 -11 -5 -92 -35 -180
-66 -88 -31 -216 -76 -285 -101 -112 -40 -226 -81 -485 -173 -114 -40 -114
-40 -110 -58 1 -9 6 -46 10 -82 4 -36 9 -78 11 -95 2 -16 6 -52 9 -80 3 -27 8
-66 10 -85 2 -19 7 -60 10 -90 3 -30 8 -72 10 -92 3 -21 7 -55 10 -75 2 -21 7
-60 9 -88 3 -27 10 -90 16 -140 6 -49 13 -110 16 -135 3 -25 7 -61 10 -80 3
-19 7 -57 10 -85 2 -27 6 -63 8 -80 3 -16 7 -55 10 -85 4 -30 9 -71 11 -90 6
-45 16 -134 20 -182 2 -21 6 -50 9 -65 3 -15 8 -58 11 -95 3 -37 7 -75 9 -85
2 -10 7 -49 10 -88 4 -38 9 -81 11 -95 2 -14 9 -70 15 -125 6 -55 13 -118 16
-140 2 -22 7 -60 9 -85 3 -25 8 -58 10 -75 2 -16 7 -63 11 -104 3 -41 8 -81 9
-90 2 -9 6 -41 10 -71 3 -30 8 -71 11 -90 3 -19 7 -57 9 -85 3 -27 7 -70 10
-95 3 -25 8 -61 10 -80 2 -19 7 -55 10 -80 5 -46 10 -84 20 -180 3 -30 8 -64
10 -75 2 -11 4 -30 4 -41 1 -16 19 -31 69 -58 65 -35 147 -80 224 -124 21 -12
68 -38 105 -58 37 -21 230 -127 428 -237 198 -110 383 -212 410 -227 28 -15
77 -42 110 -60 33 -18 69 -39 80 -45 11 -7 45 -26 75 -42 30 -17 75 -41 100
-55 25 -14 172 -96 328 -182 l283 -157 62 34 c34 19 82 45 107 59 25 14 218
121 430 238 475 263 1023 567 1358 752 138 77 252 145 253 152 0 6 2 18 4 26
1 8 8 65 15 125 6 61 13 121 15 135 2 14 9 72 15 130 13 123 18 162 25 210 2
19 7 60 10 90 3 30 8 71 10 90 2 19 7 60 10 90 3 30 8 66 10 80 2 14 7 52 10
85 3 33 10 96 15 140 6 44 12 103 15 130 3 28 8 61 10 75 2 14 7 57 11 95 3
39 8 77 9 85 2 8 6 47 10 85 4 39 8 81 10 95 2 14 6 43 9 65 3 22 8 67 11 100
3 33 7 71 10 85 2 14 7 52 10 85 3 33 10 96 16 140 10 84 14 116 24 205 3 30
8 71 10 90 3 19 18 157 35 305 17 149 32 284 35 300 8 68 29 261 30 279 0 14
-17 24 -70 43 -38 14 -124 45 -190 69 -182 65 -1691 603 -1765 629 -36 12
-180 64 -321 114 -140 50 -257 91 -260 90 -2 0 -65 -22 -139 -49z"/>
</g>
</svg>
