<?xml version="1.0" encoding="UTF-8" standalone="no"?>
<!DOCTYPE svg PUBLIC "-//W3C//DTD SVG 1.1//EN" "http://www.w3.org/Graphics/SVG/1.1/DTD/svg11.dtd">
<svg version="1.1" xmlns="http://www.w3.org/2000/svg" xmlns:xlink="http://www.w3.org/1999/xlink" preserveAspectRatio="xMidYMid meet" viewBox="0 0 640 640" width="200" height="200"><defs><path d="M320 76.8L320 76.8L81.66 161.79L118.02 476.93L320 588.8L320 588.8L320 588.8L521.98 476.93L558.34 161.79L320 76.8L320 76.8Z" id="hsBAvjjKB"></path><path d="M320 133.63L320 133.38L320 392.7L320 392.7L320 588.8L320 588.8L521.98 476.93L558.34 161.79L320 76.8L320 76.8L320 133.63Z" id="aGCeEg5Xx"></path><path d="M320.72 160.8L321.07 160.85L321.43 160.9L321.78 160.98L322.12 161.07L322.46 161.18L322.8 161.31L323.12 161.45L323.44 161.61L323.75 161.79L324.04 161.98L324.33 162.19L324.6 162.42L324.86 162.66L325.11 162.92L325.34 163.2L325.55 163.5L325.74 163.81L325.92 164.14L359.03 230.36L359.11 230.51L359.18 230.67L359.25 230.83L359.31 230.98L359.37 231.14L359.42 231.3L359.47 231.47L359.51 231.63L359.55 231.79L359.59 231.96L359.62 232.12L359.65 232.28L359.68 232.45L359.69 232.62L359.71 232.78L359.72 232.95L359.73 233.12L359.73 233.28L359.73 233.45L359.73 233.62L359.72 233.78L359.7 233.95L359.68 234.11L359.66 234.28L359.64 234.44L359.6 234.61L359.57 234.77L359.53 234.93L359.49 235.1L359.44 235.26L359.39 235.42L359.33 235.58L359.28 235.73L359.21 235.89L359.14 236.05L359.07 236.2L359 236.35L358.92 236.5L358.83 236.65L358.74 236.8L358.65 236.95L358.56 237.09L358.46 237.23L358.36 237.36L358.25 237.5L358.14 237.63L358.03 237.75L357.92 237.88L357.8 238L357.68 238.11L357.56 238.23L357.43 238.34L357.3 238.45L357.17 238.55L357.04 238.65L356.9 238.75L356.76 238.84L356.62 238.93L356.48 239.02L356.34 239.1L356.19 239.18L356.04 239.26L355.89 239.33L355.74 239.4L355.58 239.46L355.43 239.52L355.27 239.58L355.11 239.63L354.95 239.68L354.79 239.73L354.63 239.77L354.46 239.8L354.3 239.84L354.13 239.86L353.96 239.89L353.79 239.91L353.62 239.92L353.45 239.93L353.28 239.94L353.11 239.94L286.89 239.94L286.72 239.94L286.55 239.93L286.38 239.92L286.21 239.91L286.04 239.89L285.87 239.86L285.7 239.84L285.54 239.8L285.37 239.77L285.21 239.73L285.05 239.68L284.89 239.63L284.73 239.58L284.57 239.52L284.42 239.46L284.26 239.4L284.11 239.33L283.96 239.26L283.81 239.18L283.66 239.1L283.52 239.02L283.38 238.93L283.24 238.84L283.1 238.75L282.96 238.65L282.83 238.55L282.7 238.45L282.57 238.34L282.44 238.23L282.32 238.11L282.2 238L282.08 237.88L281.97 237.75L281.86 237.62L281.75 237.49L281.64 237.36L281.54 237.22L281.44 237.09L281.35 236.94L281.25 236.8L281.17 236.65L281.08 236.5L281 236.35L280.93 236.2L280.85 236.04L280.79 235.89L280.72 235.73L280.66 235.58L280.61 235.42L280.56 235.26L280.51 235.1L280.47 234.93L280.43 234.77L280.39 234.61L280.36 234.44L280.34 234.28L280.31 234.11L280.3 233.95L280.28 233.78L280.27 233.61L280.27 233.45L280.27 233.28L280.27 233.11L280.28 232.95L280.29 232.78L280.3 232.61L280.32 232.45L280.35 232.28L280.38 232.12L280.41 231.95L280.44 231.79L280.49 231.63L280.53 231.46L280.58 231.3L280.63 231.14L280.69 230.98L280.75 230.82L280.82 230.67L280.89 230.51L280.96 230.36L314.08 164.14L314.25 163.81L314.45 163.5L314.66 163.2L314.89 162.92L315.14 162.66L315.4 162.42L315.67 162.19L315.95 161.98L316.25 161.79L316.56 161.61L316.87 161.45L317.2 161.31L317.53 161.18L317.87 161.07L318.22 160.98L318.57 160.9L318.92 160.85L319.28 160.8L319.64 160.78L320 160.77L320.36 160.78L320.72 160.8ZM342.39 226.7L320 181.91L297.6 226.7L342.39 226.7Z" id="e1FMdR1IIU"></path><path d="M353.45 425.37L353.62 425.38L353.79 425.4L353.96 425.42L354.13 425.44L354.3 425.47L354.46 425.5L354.63 425.54L354.79 425.58L354.95 425.62L355.11 425.67L355.27 425.73L355.43 425.78L355.58 425.84L355.74 425.91L355.89 425.98L356.04 426.05L356.19 426.12L356.34 426.2L356.48 426.29L356.62 426.37L356.76 426.46L356.9 426.56L357.04 426.65L357.17 426.75L357.3 426.86L357.43 426.97L357.55 427.08L357.68 427.19L357.8 427.31L357.92 427.43L358.03 427.55L358.14 427.68L358.25 427.81L358.36 427.94L358.46 428.08L358.56 428.22L358.65 428.36L358.74 428.51L358.83 428.65L358.92 428.8L359 428.95L359.07 429.11L359.14 429.26L359.21 429.41L359.28 429.57L359.33 429.73L359.39 429.89L359.44 430.05L359.49 430.21L359.53 430.37L359.57 430.53L359.6 430.7L359.64 430.86L359.66 431.03L359.68 431.19L359.7 431.36L359.72 431.52L359.73 431.69L359.73 431.86L359.73 432.02L359.73 432.19L359.72 432.36L359.71 432.52L359.69 432.69L359.68 432.86L359.65 433.02L359.62 433.19L359.59 433.35L359.55 433.51L359.51 433.68L359.47 433.84L359.42 434L359.37 434.16L359.31 434.32L359.25 434.48L359.18 434.64L359.11 434.79L359.03 434.95L325.92 501.17L325.84 501.34L325.75 501.5L325.65 501.66L325.55 501.82L325.45 501.97L325.34 502.12L325.23 502.27L325.12 502.41L325 502.55L324.88 502.69L324.75 502.82L324.62 502.95L324.49 503.08L324.36 503.2L324.22 503.31L324.08 503.43L323.93 503.54L323.78 503.64L323.63 503.74L323.48 503.84L323.33 503.93L323.17 504.02L323.01 504.11L322.85 504.19L322.68 504.26L322.51 504.34L322.34 504.4L322.17 504.46L322 504.52L321.83 504.57L321.65 504.62L321.47 504.67L321.29 504.7L321.11 504.74L320.93 504.77L320.75 504.79L320.56 504.81L320.37 504.82L320.19 504.83L320 504.83L319.81 504.83L319.63 504.82L319.44 504.81L319.25 504.79L319.07 504.76L318.89 504.74L318.71 504.7L318.53 504.66L318.35 504.62L318.17 504.57L318 504.52L317.83 504.46L317.66 504.4L317.49 504.33L317.32 504.26L317.15 504.19L316.99 504.11L316.83 504.02L316.67 503.93L316.52 503.84L316.37 503.74L316.22 503.64L316.07 503.54L315.92 503.43L315.78 503.31L315.64 503.2L315.51 503.07L315.38 502.95L315.25 502.82L315.12 502.69L315 502.55L314.88 502.41L314.77 502.27L314.66 502.12L314.55 501.97L314.45 501.82L314.35 501.66L314.25 501.5L314.16 501.34L314.08 501.17L280.97 434.95L280.89 434.79L280.82 434.64L280.75 434.48L280.69 434.32L280.63 434.16L280.58 434L280.53 433.84L280.49 433.68L280.45 433.51L280.41 433.35L280.38 433.19L280.35 433.02L280.32 432.86L280.3 432.69L280.29 432.52L280.28 432.36L280.27 432.19L280.27 432.02L280.27 431.86L280.27 431.69L280.28 431.52L280.3 431.36L280.32 431.19L280.34 431.03L280.36 430.86L280.39 430.7L280.43 430.53L280.47 430.37L280.51 430.21L280.56 430.05L280.61 429.89L280.66 429.73L280.72 429.57L280.79 429.41L280.86 429.26L280.93 429.11L281 428.95L281.08 428.8L281.17 428.65L281.26 428.51L281.35 428.36L281.44 428.22L281.54 428.08L281.64 427.94L281.75 427.81L281.86 427.68L281.97 427.55L282.08 427.43L282.2 427.31L282.32 427.19L282.44 427.08L282.57 426.97L282.7 426.86L282.83 426.75L282.96 426.65L283.1 426.56L283.24 426.46L283.38 426.37L283.52 426.29L283.66 426.2L283.81 426.12L283.96 426.05L284.11 425.98L284.26 425.91L284.42 425.84L284.57 425.78L284.73 425.73L284.89 425.67L285.05 425.62L285.21 425.58L285.37 425.54L285.54 425.5L285.7 425.47L285.87 425.44L286.04 425.42L286.21 425.4L286.38 425.38L286.55 425.37L286.72 425.37L286.89 425.36L353.11 425.36L353.28 425.37L353.45 425.37ZM320 483.4L342.4 438.61L297.61 438.61L320 483.4Z" id="c7OUQrY0w"></path><path d="" id="a4VF3fsHm"></path><path d="M286.78 258.86L353.22 258.86L353.22 273.15L286.78 273.15L286.78 258.86Z" id="a3NSaGdHq1"></path><path d="M294.23 266.01C294.23 269.95 290.89 273.15 286.78 273.15C282.67 273.15 279.33 269.95 279.33 266.01C279.33 262.06 282.67 258.86 286.78 258.86C290.89 258.86 294.23 262.06 294.23 266.01Z" id="aKBpnhGzW"></path><path d="M360.67 266.01C360.67 269.95 357.33 273.15 353.22 273.15C349.11 273.15 345.77 269.95 345.77 266.01C345.77 262.06 349.11 258.86 353.22 258.86C357.33 258.86 360.67 262.06 360.67 266.01Z" id="aDUSZgN5C"></path><path d="M286.78 292.4L353.22 292.4L353.22 306.69L286.78 306.69L286.78 292.4Z" id="a1Tr4YAJGu"></path><path d="M294.23 299.54C294.23 303.48 290.89 306.69 286.78 306.69C282.67 306.69 279.33 303.48 279.33 299.54C279.33 295.6 282.67 292.4 286.78 292.4C290.89 292.4 294.23 295.6 294.23 299.54Z" id="hfNrhVSgo"></path><path d="M360.67 299.54C360.67 303.48 357.33 306.69 353.22 306.69C349.11 306.69 345.77 303.48 345.77 299.54C345.77 295.6 349.11 292.4 353.22 292.4C357.33 292.4 360.67 295.6 360.67 299.54Z" id="f9ovxm9P8T"></path><path d="M286.78 325.66L353.22 325.66L353.22 339.94L286.78 339.94L286.78 325.66Z" id="a1OwQVdz7N"></path><path d="M294.23 332.8C294.23 336.74 290.89 339.94 286.78 339.94C282.67 339.94 279.33 336.74 279.33 332.8C279.33 328.86 282.67 325.66 286.78 325.66C290.89 325.66 294.23 328.86 294.23 332.8Z" id="h2hqdKcInr"></path><path d="M360.67 332.8C360.67 336.74 357.33 339.94 353.22 339.94C349.11 339.94 345.77 336.74 345.77 332.8C345.77 328.86 349.11 325.66 353.22 325.66C357.33 325.66 360.67 328.86 360.67 332.8Z" id="iaHWCd97v"></path><path d="M286.78 358.41L353.22 358.41L353.22 372.7L286.78 372.7L286.78 358.41Z" id="d5fYRGPntb"></path><path d="M294.23 365.55C294.23 369.49 290.89 372.7 286.78 372.7C282.67 372.7 279.33 369.49 279.33 365.55C279.33 361.61 282.67 358.41 286.78 358.41C290.89 358.41 294.23 361.61 294.23 365.55Z" id="a5pESjkLl"></path><path d="M360.67 365.55C360.67 369.49 357.33 372.7 353.22 372.7C349.11 372.7 345.77 369.49 345.77 365.55C345.77 361.61 349.11 358.41 353.22 358.41C357.33 358.41 360.67 361.61 360.67 365.55Z" id="eAjYou6iC"></path><path d="M286.78 392.15L353.22 392.15L353.22 406.44L286.78 406.44L286.78 392.15Z" id="d4mbzfdgoq"></path><path d="M294.23 399.3C294.23 403.24 290.89 406.44 286.78 406.44C282.67 406.44 279.33 403.24 279.33 399.3C279.33 395.35 282.67 392.15 286.78 392.15C290.89 392.15 294.23 395.35 294.23 399.3Z" id="b1fr31FZbs"></path><path d="M360.67 399.3C360.67 403.24 357.33 406.44 353.22 406.44C349.11 406.44 345.77 403.24 345.77 399.3C345.77 395.35 349.11 392.15 353.22 392.15C357.33 392.15 360.67 395.35 360.67 399.3Z" id="aqdtJb5C"></path></defs><g><g><g><use xlink:href="#hsBAvjjKB" opacity="1" fill="#3dc1e3" fill-opacity="1"></use><g><use xlink:href="#hsBAvjjKB" opacity="1" fill-opacity="0" stroke="#000000" stroke-width="1" stroke-opacity="0"></use></g></g><g><use xlink:href="#aGCeEg5Xx" opacity="1" fill="#28a6c6" fill-opacity="1"></use><g><use xlink:href="#aGCeEg5Xx" opacity="1" fill-opacity="0" stroke="#000000" stroke-width="1" stroke-opacity="0"></use></g></g><g><use xlink:href="#e1FMdR1IIU" opacity="1" fill="#ffffff" fill-opacity="1"></use><g><use xlink:href="#e1FMdR1IIU" opacity="1" fill-opacity="0" stroke="#000000" stroke-width="1" stroke-opacity="0"></use></g></g><g><use xlink:href="#c7OUQrY0w" opacity="1" fill="#ffffff" fill-opacity="1"></use><g><use xlink:href="#c7OUQrY0w" opacity="1" fill-opacity="0" stroke="#000000" stroke-width="1" stroke-opacity="0"></use></g></g><g><g><use xlink:href="#a4VF3fsHm" opacity="1" fill-opacity="0" stroke="#000000" stroke-width="1" stroke-opacity="1"></use></g></g><g><g><use xlink:href="#a3NSaGdHq1" opacity="1" fill="#ffffff" fill-opacity="1"></use></g><g><use xlink:href="#aKBpnhGzW" opacity="1" fill="#ffffff" fill-opacity="1"></use></g><g><use xlink:href="#aDUSZgN5C" opacity="1" fill="#ffffff" fill-opacity="1"></use></g></g><g><g><use xlink:href="#a1Tr4YAJGu" opacity="1" fill="#ffffff" fill-opacity="1"></use></g><g><use xlink:href="#hfNrhVSgo" opacity="1" fill="#ffffff" fill-opacity="1"></use></g><g><use xlink:href="#f9ovxm9P8T" opacity="1" fill="#ffffff" fill-opacity="1"></use></g></g><g><g><use xlink:href="#a1OwQVdz7N" opacity="1" fill="#ffffff" fill-opacity="1"></use></g><g><use xlink:href="#h2hqdKcInr" opacity="1" fill="#ffffff" fill-opacity="1"></use></g><g><use xlink:href="#iaHWCd97v" opacity="1" fill="#ffffff" fill-opacity="1"></use></g></g><g><g><use xlink:href="#d5fYRGPntb" opacity="1" fill="#ffffff" fill-opacity="1"></use></g><g><use xlink:href="#a5pESjkLl" opacity="1" fill="#ffffff" fill-opacity="1"></use></g><g><use xlink:href="#eAjYou6iC" opacity="1" fill="#ffffff" fill-opacity="1"></use></g></g><g><g><use xlink:href="#d4mbzfdgoq" opacity="1" fill="#ffffff" fill-opacity="1"></use></g><g><use xlink:href="#b1fr31FZbs" opacity="1" fill="#ffffff" fill-opacity="1"></use></g><g><use xlink:href="#aqdtJb5C" opacity="1" fill="#ffffff" fill-opacity="1"></use></g></g></g></g></svg>