<?xml version="1.0" standalone="no"?>
<!DOCTYPE svg PUBLIC "-//W3C//DTD SVG 20010904//EN"
 "http://www.w3.org/TR/2001/REC-SVG-20010904/DTD/svg10.dtd">
<svg version="1.0" xmlns="http://www.w3.org/2000/svg"
 width="700.000000pt" height="700.000000pt" viewBox="0 0 700.000000 700.000000"
 preserveAspectRatio="xMidYMid meet">
<metadata>
Created by potrace 1.14, written by Peter Selinger 2001-2017
</metadata>
<g transform="translate(0.000000,700.000000) scale(0.100000,-0.100000)"
fill="#000000" stroke="none">
<path d="M2200 5696 c-954 -342 -1296 -468 -1298 -480 -3 -13 387 -3428 392
-3432 0 -1 498 -276 1105 -612 l1104 -612 1096 607 c603 333 1100 609 1104
613 11 9 407 3443 399 3451 -8 7 -2568 920 -2592 925 -8 1 -598 -206 -1310
-460z m1335 -462 c22 -9 395 -756 395 -792 0 -59 1 -59 -422 -67 l-387 -7 -31
30 c-16 17 -30 37 -30 46 0 19 366 754 388 779 15 17 56 22 87 11z m379 -1085
c34 -27 37 -86 5 -115 -20 -18 -44 -19 -414 -22 l-393 -3 -26 23 c-41 37 -44
72 -8 108 l30 30 390 0 c379 0 390 -1 416 -21z m3 -371 c42 -40 19 -128 -34
-128 -10 0 -183 -2 -385 -6 -402 -6 -417 -4 -439 53 -11 31 4 78 30 93 9 5
181 10 410 10 392 0 395 0 418 -22z m2 -362 c14 -13 21 -31 21 -56 0 -25 -7
-43 -21 -56 -20 -18 -44 -19 -415 -22 l-395 -3 -29 30 c-17 16 -30 39 -30 51
0 12 13 35 30 51 l29 30 395 -3 c371 -3 395 -4 415 -22z m-5 -357 c26 -20 34
-57 20 -94 -17 -42 -44 -45 -443 -45 -380 0 -380 0 -405 23 -39 34 -42 68 -11
105 l27 32 393 0 c382 0 393 -1 419 -21z m0 -370 c28 -22 35 -64 16 -99 -19
-36 -62 -40 -439 -40 -395 0 -404 2 -429 53 -15 32 -9 60 21 87 20 19 37 20
413 20 381 0 392 -1 418 -21z m-10 -360 c17 -14 26 -30 26 -50 0 -18 -73 -175
-190 -409 -261 -521 -221 -522 -489 11 -190 377 -194 387 -181 418 7 17 20 36
29 41 9 5 176 10 397 10 371 0 382 -1 408 -21z"/>
<path d="M3377 4765 c-64 -129 -117 -237 -117 -240 0 -3 108 -5 240 -5 132 0
240 2 240 5 0 10 -235 475 -240 475 -3 0 -58 -106 -123 -235z"/>
<path d="M3381 1958 l121 -243 119 235 c65 129 118 238 118 243 1 4 -107 7
-239 7 l-240 0 121 -242z"/>
</g>
</svg>
